# xmcd
# Copyright (C) 1995-1998 Ti Kan
#
# Track frame offsets:
#       150
#       19952
#       37774
#       55873
#       73753
#       89008
#       109686
#       127807
#       146542
#       163057
#       180451
#       199214
#       216080
#       233069
#       249288
#       267936
#       286286
#       301925
#       319443
#       338466
#
# Disc length: 4719 seconds
#
# Revision: 0
# Processed by: cddbd v1.5.2PL0 Copyright (c) Steve Scherf et al.
# Submitted via: CD-Transfer v1.0
#
DISCID=1c126d14
DTITLE=Gloria Estefan - The Very Best Of... [CD)
DYEAR=1900
DGENRE=
TTITLE0=Dr. Beat (Radio Edit)
TTITLE1=Rhythm Is Gonna Get You (Radio Edit)
TTITLE2=You'll Be Mine (Party Time) (Radio Edit)
TTITLE3=Can't Stay Away From You (Radio Edit)
TTITLE4=Hold Me, Thrill Me, Kiss Me (Radio Edit)
TTITLE5=Heaven's What I Feel (Radio Edit)
TTITLE6=Everlasting Love (Radio Edit)
TTITLE7=Don't Wanna Lose You (Radio Edit)
TTITLE8=Get On Your Feet (Radio Edit)
TTITLE9=Reach (Radio Edit)
TTITLE10=Don't Let This Moment End (Radio Edit)
TTITLE11=Anything For You (Radio Edit)
TTITLE12=Bad Boy (Radio Edit)
TTITLE13=1-2-3 (Radio Edit)
TTITLE14=Oye Mi Canto (Hear My Voice) (Radio Edit)
TTITLE15=Coming Out Of The Dark (Radio Edit)
TTITLE16=Wrapped (Radio Edit)
TTITLE17=Turn The Beat Around (Radio Edit)
TTITLE18=Conga (Radio Edit)
TTITLE19=Doctor Pressure (Radio Edit)
EXTD=
EXTT0=
EXTT1=
EXTT2=
EXTT3=
EXTT4=
EXTT5=
EXTT6=
EXTT7=
EXTT8=
EXTT9=
EXTT10=
EXTT11=
EXTT12=
EXTT13=
EXTT14=
EXTT15=
EXTT16=
EXTT17=
EXTT18=
EXTT19=
PLAYORDER=
